<svg width="300" height="300" viewBox="0 0 300 300" fill="none" xmlns="http://www.w3.org/2000/svg">
<g id="logo">
<circle id="background" cx="150" cy="150" r="150" fill="white"/>
<g id="face">
<path id="beard" d="M234.81 186.075C234.81 186.075 231.393 179.638 231.213 179.5L232.103 184.697C232.103 184.697 231.664 185.598 231.213 186.097C229.09 188.448 225.335 186.274 221.867 187.272C218.916 188.122 214.872 190.385 214.872 190.385C214.872 190.385 196.294 187.059 185.916 190.568C182.39 191.76 180.918 193.175 177.488 194.526C171.518 196.876 167.76 197.52 161.328 198.952C156.887 199.941 154.439 200.884 149.831 201.116C138.869 201.669 132.703 198.124 123.523 193.472C117.453 190.396 114.371 188.179 109.614 183.936C102.629 177.706 99.6596 173.372 96.0085 165.612C92.5131 158.183 91.2064 145.698 91.2064 145.698L90.2658 139.148L83.9661 149.984C85.4933 154.484 85.9399 154.769 86.2375 156.329C86.5351 157.889 87.9766 165.895 88.6601 169.703C90.992 178.196 96.3812 196.154 96.3812 196.154C96.3812 196.154 105.918 206.275 110.323 210.85C114.729 215.425 128.357 218.407 135.742 220.174C143.128 221.94 149.825 223.458 158.976 225.187C166.453 226.601 178.241 228.413 178.241 228.413L204.68 228.246L210.698 227.162C210.698 227.162 213.051 226.286 215.093 225.391C218.8 223.766 219.682 221.911 222.066 218.792C224.588 215.491 228.307 210.105 228.307 210.105L232.929 201.568C232.929 201.568 235.587 196.215 235.75 192.624C235.867 190.051 234.81 186.075 234.81 186.075Z" fill="#393939"/>
<path id="hair" d="M75.4424 149.293L84.9641 152.152L84.0511 149.981L90.2778 139.148L89.1484 131.205L100.509 107.423L115.188 96.3117L109.711 83.5148L113.286 80.1788L115.079 79.2769L138.087 77.0534L177.475 76.8047L191.517 78.7942L201.589 78.7306L210.273 86.6915L214.636 94.0859L219.625 89.6012C220.745 86.3779 223.02 79.8125 223.161 79.3366C223.337 78.7417 221.869 74.2978 222.043 73.4061C222.183 72.6927 218.353 68.7783 216.421 66.9103L215.861 63.6482L215.803 54.5938L210.669 39.7823L203.407 30.0312L191.514 28.3251L174.428 30.808L162.026 34.0035L137.16 30.4495L120.618 33.5228L108.608 41.7627L93.7106 48.8334L77.0243 57.6967L61.8007 70.1132L53.5733 78.6261L50.3827 86.5135L48.62 92.4622L46.126 96.6342C47.2014 96.6275 46.1465 99.8701 46.1532 100.939C46.1616 102.275 44.3793 105.106 44.3811 105.403C44.3826 105.641 43.8117 110.256 43.526 112.534L44.4936 123.215L46.3397 130.477L48.9143 139.07C49.4653 140.798 50.604 144.374 50.751 144.848C50.9348 145.44 52.4002 149.439 52.765 150.179C53.0567 150.771 54.309 149.179 54.5553 150.167L56.1853 150.157L60.4898 147.606L65.1702 147.577L70.942 149.322L75.4424 149.293Z" fill="#393939"/>
<path id="face_2" d="M209.833 82.6761C210.554 84.8906 214.158 90.0416 214.158 90.0416L215.6 97.9847L219.024 105.061L221.367 107.516L225.512 110.116L228.936 114.015L228.936 117.193L227.855 122.969L225.512 128.457L224.07 132.212L224.07 134.956L223.35 137.989L224.07 139.578L227.134 145.499L229.838 151.131L231.46 159.941L231.46 166.873L232 178.282C231.88 180.882 231.82 183.799 231.82 183.915C231.82 184.03 231.58 187.766 231.46 188.536C231.159 188.969 230.559 189.865 230.559 189.98C230.559 190.096 229.477 190.799 228.936 191.136L221.187 191.136L214.158 194.313L198.659 194.313L185.142 194.313L176.671 198.357L160.451 202.834L148.916 205L122.604 196.912L108.726 186.947L95.2093 167.884C93.5272 161.53 90.1629 148.532 90.1629 147.376C90.1629 146.221 88.7211 136.786 88.0002 132.212L92.1454 122.536L99.5347 107.516L114.674 95.8184L108.726 82.6761C109.687 80.1247 112.223 75.0219 114.674 75.0219C117.737 75.0219 135.4 73 138.103 73L160.451 73L176.671 73C178.834 73 189.467 75.0219 191.81 75.0219L201.182 75.0219L209.833 82.6761Z" fill="white"/>
<g id="sunglasses">
<path d="M218.041 149.081C218.041 149.081 225.299 149.192 228.828 148.455C232.415 147.706 234.546 146.887 237.079 144.777C239.544 142.723 241.175 138.335 241.175 138.335C241.175 138.335 243.665 133.995 243.642 130.23C243.624 127.489 242.335 122.707 242.335 122.707C242.335 122.707 239.73 118.203 236.897 116.046C234.176 113.975 232.159 113.117 228.599 112.054C223.848 110.635 220.666 110.208 215.641 110.881C211.085 111.491 207.422 111.718 204.874 114.714C203.759 116.025 203.099 118.491 203.099 118.491C203.099 118.491 200.288 115.614 197.68 114.76C194.448 113.701 188.687 114.817 188.687 114.817C188.687 114.817 184.046 115.223 180.96 115.842C179.873 114.733 177.249 112.894 174.457 111.42C171.216 109.708 169.193 108.88 165.442 107.99C161.38 107.026 158.886 106.713 154.644 106.942C150.138 107.185 147.584 107.867 143.508 109.383C140.746 110.411 136.874 112.633 136.874 112.633C135.122 113.298 132.947 117.4 132.947 117.4C132.947 117.4 133.43 118.867 132.969 120.887C132.259 123.999 133.02 128.976 133.02 128.976C133.02 128.976 134.697 134.049 136.847 136.902C138.959 139.703 140.053 140.988 143.722 143.274C146.021 144.707 147.607 145.269 150.394 146.021C153.293 146.804 155.063 147.071 158.135 147.088C161.483 147.107 163.497 146.939 166.581 145.919C170.087 144.759 171.743 143.471 174.286 141.268C176.876 139.022 178.047 137.485 179.46 134.68C180.795 132.03 181.415 131.04 181.393 127.555L181.337 118.629C181.337 118.629 181.176 116.712 180.96 115.842C184.046 115.223 188.687 114.817 188.687 114.817C188.687 114.817 194.448 113.701 197.68 114.76C200.288 115.614 203.099 118.491 203.099 118.491C203.099 118.491 201.652 121.935 201.517 124.22C201.34 127.199 201.582 134.54 201.582 134.54C201.582 134.54 202.247 140.35 204.153 143.032C205.896 145.484 208.493 146.631 211.556 147.588C213.865 148.309 218.041 149.081 218.041 149.081Z" fill="#393939"/>
<path d="M203.099 118.491C203.099 118.491 203.759 116.025 204.874 114.714C207.422 111.718 211.085 111.491 215.641 110.881C220.666 110.208 223.848 110.635 228.599 112.054C232.159 113.117 234.176 113.975 236.897 116.046C239.73 118.203 242.335 122.707 242.335 122.707C242.335 122.707 243.624 127.489 243.642 130.23C243.665 133.995 241.175 138.335 241.175 138.335C241.175 138.335 239.544 142.723 237.079 144.777C234.546 146.887 232.415 147.706 228.828 148.455C225.299 149.192 218.041 149.081 218.041 149.081C218.041 149.081 213.865 148.309 211.556 147.588C208.493 146.631 205.896 145.484 204.153 143.032C202.247 140.35 201.582 134.54 201.582 134.54C201.582 134.54 201.34 127.199 201.517 124.22C201.652 121.935 203.099 118.491 203.099 118.491ZM203.099 118.491C203.099 118.491 200.288 115.614 197.68 114.76C194.448 113.701 188.687 114.817 188.687 114.817C188.687 114.817 184.046 115.223 180.96 115.842M180.96 115.842C179.873 114.733 177.249 112.894 174.457 111.42C171.216 109.708 169.193 108.88 165.442 107.99C161.38 107.026 158.886 106.713 154.644 106.942C150.138 107.185 147.584 107.867 143.508 109.383C140.746 110.411 136.874 112.633 136.874 112.633C135.122 113.298 132.947 117.4 132.947 117.4M180.96 115.842C181.176 116.712 181.337 118.629 181.337 118.629C181.337 118.629 181.371 124.069 181.393 127.555C181.415 131.04 180.795 132.03 179.46 134.68C178.047 137.485 176.876 139.022 174.286 141.268C171.743 143.471 170.087 144.759 166.581 145.919C163.497 146.939 161.483 147.107 158.135 147.088C155.063 147.071 153.293 146.804 150.394 146.021C147.607 145.269 146.021 144.707 143.722 143.274C140.053 140.988 138.959 139.703 136.847 136.902C134.697 134.049 133.02 128.976 133.02 128.976C133.02 128.976 132.259 123.999 132.969 120.887C133.43 118.867 132.947 117.4 132.947 117.4M132.947 117.4L126.662 118.974L103.323 125.816L88.0719 131.631" stroke="#273139"/>
</g>
</g>
<g id="silent-coding">
<path d="M164.342 240.018C136.068 238.494 105.622 238.838 102.65 240.018C99.6777 241.199 95 267.194 95 267.194L95 281L195.843 277.391L203.817 258.735C204.795 252.67 201.823 241.038 195.843 241.038C189.862 241.038 173.087 240.489 164.342 240.018Z" fill="#252A33"/>
<path d="M130.868 248.694L122.466 244.739L116.999 248.694C118.555 249.465 121.826 251.043 122.466 251.189C123.107 251.335 128.334 252.913 130.868 253.684L123.533 255.266L115.932 252.528M135.402 255.266L135.402 248.694M140.87 244.009L140.87 254.962M144.338 251.554C145.298 251.506 151.672 251.737 154.74 251.859L147.405 248.268L143.671 252.528L146.471 255.936L154.74 255.936M159.14 255.936C159.14 255.838 158.34 251.067 157.94 248.694L158.474 250.52L164.342 248.268L169.009 250.337L167.009 255.266M171.543 250.155C171.756 250.155 177.766 250.114 180.745 250.094M174.61 246.382L174.077 254.78L178.078 254.78M127.267 261.291C127.267 261.096 123.8 259.506 122.066 258.735L116.465 262.63L116.465 268.167L122.066 272.731L128.334 268.471M154.74 259.587L154.74 266.768M154.74 266.768L154.74 271.027L145.671 271.027L146.471 265.977L154.74 266.768ZM161.408 266.768C162.341 266.768 170.876 267.62 170.743 267.194C170.636 266.853 164.03 263.319 160.741 261.595L158.474 268.046L163.141 271.027L172.476 270.601M102.65 240.018C105.622 238.838 136.068 238.494 164.342 240.018C173.087 240.489 189.862 241.038 195.843 241.038C201.823 241.038 204.795 252.67 203.817 258.735L195.843 277.391L95 281L95 267.194C95 267.194 99.6777 241.199 102.65 240.018ZM132.602 265.977C132.815 265.782 135.091 265.185 136.603 263.847L140.87 266.768L140.87 271.21L133.402 271.027L132.602 265.977Z" stroke="white"/>
</g>
</g>
</svg>
