<svg width="400" height="400" viewBox="0 0 400 400" fill="none" xmlns="http://www.w3.org/2000/svg">
<g id="silent-coding">
<path id="frame" d="M399.3 210.608C399.61 213.849 399.818 217.116 399.922 220.405L397.423 220.485C397.474 222.093 397.5 223.708 397.5 225.328C397.5 226.947 397.474 228.562 397.423 230.17L399.922 230.25C399.818 233.539 399.61 236.806 399.3 240.047L396.811 239.809C396.504 243.028 396.095 246.222 395.587 249.389L398.055 249.785C397.535 253.027 396.913 256.241 396.192 259.423L393.754 258.871C393.04 262.018 392.229 265.135 391.322 268.219L393.72 268.925C392.795 272.07 391.772 275.18 390.654 278.254L388.305 277.4C387.203 280.429 386.008 283.422 384.722 286.377L387.014 287.374C385.709 290.375 384.311 293.336 382.824 296.254L380.597 295.12C379.135 297.989 377.586 300.817 375.952 303.602L378.109 304.867C376.455 307.686 374.716 310.46 372.895 313.188L370.816 311.8C369.028 314.477 367.16 317.108 365.214 319.692L367.211 321.196C365.247 323.805 363.204 326.365 361.086 328.873L359.176 327.261C357.099 329.721 354.949 332.131 352.728 334.49L354.548 336.204C352.311 338.579 350.004 340.902 347.629 343.171L345.902 341.363C343.575 343.586 341.181 345.755 338.724 347.869L340.354 349.764C337.882 351.892 335.347 353.963 332.751 355.976L331.219 354.001C328.675 355.974 326.072 357.891 323.412 359.749L324.844 361.798C322.171 363.666 319.442 365.475 316.659 367.223L315.329 365.106C312.602 366.819 309.823 368.473 306.994 370.066L308.22 372.245C305.379 373.844 302.489 375.383 299.552 376.858L298.43 374.624C295.551 376.069 292.627 377.454 289.659 378.774L290.675 381.058C287.697 382.384 284.675 383.646 281.613 384.843L280.703 382.514C277.703 383.687 274.662 384.796 271.585 385.84L272.388 388.208C269.301 389.255 266.178 390.237 263.019 391.152L262.323 388.751C259.229 389.647 256.101 390.479 252.94 391.244L253.528 393.674C250.361 394.44 247.163 395.14 243.935 395.772L243.455 393.319C240.294 393.937 237.104 394.49 233.887 394.975L234.259 397.447C231.039 397.933 227.792 398.351 224.52 398.7L224.255 396.215C221.052 396.556 217.826 396.832 214.577 397.038L214.736 399.533C211.487 399.74 208.216 399.879 204.925 399.948L204.872 397.449C203.253 397.483 201.629 397.5 200 397.5C198.371 397.5 196.747 397.483 195.128 397.449L195.075 399.948C191.784 399.879 188.514 399.74 185.264 399.533L185.423 397.038C182.175 396.832 178.948 396.556 175.745 396.215L175.48 398.7C172.209 398.351 168.961 397.933 165.741 397.447L166.113 394.975C162.897 394.49 159.706 393.937 156.545 393.319L156.065 395.772C152.837 395.14 149.639 394.44 146.472 393.674L147.06 391.244C143.899 390.479 140.771 389.647 137.677 388.751L136.981 391.152C133.822 390.237 130.699 389.255 127.612 388.208L128.416 385.84C125.338 384.796 122.297 383.687 119.297 382.514L118.387 384.843C115.325 383.646 112.303 382.384 109.325 381.058L110.341 378.774C107.373 377.454 104.449 376.069 101.57 374.624L100.449 376.858C97.5111 375.383 94.6206 373.844 91.7796 372.245L93.0061 370.066C90.177 368.473 87.3977 366.819 84.6708 365.106L83.3409 367.223C80.5582 365.475 77.8291 363.666 75.156 361.798L76.5878 359.749C73.9283 357.891 71.3252 355.974 68.7813 354.001L67.2491 355.976C64.6533 353.963 62.1179 351.892 59.6455 349.764L61.2761 347.869C58.8189 345.755 56.4253 343.586 54.0978 341.363L52.3711 343.171C49.9961 340.902 47.6886 338.579 45.4515 336.204L47.2716 334.49C45.0508 332.131 42.9007 329.721 40.8241 327.261L38.9138 328.873C36.7961 326.365 34.7535 323.805 32.7887 321.196L34.7857 319.692C32.8397 317.109 30.9716 314.477 29.1842 311.8L27.105 313.188C25.2839 310.46 23.545 307.686 21.8913 304.867L24.0476 303.602C22.414 300.817 20.8649 297.989 19.4034 295.12L17.1758 296.254C15.6891 293.336 14.2913 290.375 12.9855 287.374L15.2778 286.377C13.992 283.422 12.7969 280.429 11.6954 277.4L9.34596 278.254C8.22821 275.181 7.20524 272.07 6.28002 268.925L8.67839 268.219C7.77119 265.135 6.95959 262.019 6.24645 258.871L3.80825 259.423C3.08719 256.241 2.46513 253.027 1.94499 249.785L4.41342 249.389C3.90547 246.222 3.49632 243.029 3.18877 239.809L0.700098 240.047C0.390419 236.806 0.182087 233.539 0.0778778 230.25L2.57662 230.171C2.52565 228.562 2.5 226.947 2.5 225.328C2.5 223.708 2.52565 222.093 2.57662 220.485L0.0778766 220.405C0.182085 217.116 0.390415 213.849 0.700093 210.608L3.18876 210.846C3.49631 207.627 3.90547 204.433 4.41342 201.266L1.94498 200.87C2.46512 197.628 3.08718 194.414 3.80823 191.232L6.24644 191.784C6.95957 188.637 7.77117 185.52 8.67837 182.436L6.28 181.73C7.20522 178.585 8.2282 175.475 9.34594 172.401L11.6954 173.255C12.7969 170.226 13.992 167.233 15.2778 164.278L12.9855 163.281C14.2913 160.28 15.689 157.319 17.1757 154.401L19.4034 155.535C20.8649 152.666 22.4139 149.838 24.0476 147.053L21.8913 145.788C23.545 142.969 25.2839 140.195 27.105 137.467L29.1841 138.855C30.9716 136.178 32.8397 133.547 34.7856 130.963L32.7887 129.459C34.7535 126.85 36.7961 124.29 38.9137 121.782L40.8241 123.394C42.9007 120.934 45.0508 118.524 47.2716 116.165L45.4515 114.451C47.6886 112.076 49.996 109.753 52.3711 107.484L54.0978 109.292C56.4253 107.069 58.8189 104.9 61.2761 102.786L59.6455 100.891C62.1179 98.7633 64.6533 96.6919 67.2491 94.6786L68.7813 96.654C71.3252 94.6809 73.9283 92.7642 76.5878 90.906L75.156 88.8566C77.829 86.989 80.5582 85.18 83.3409 83.4319L84.6707 85.5488C87.3977 83.8357 90.1769 82.1817 93.0061 80.5888L91.7795 78.4104C94.6206 76.8108 97.5111 75.2724 100.448 73.7972L101.57 76.0313C104.449 74.5857 107.373 73.2015 110.341 71.8807L109.325 69.5967C112.303 68.2713 115.325 67.0092 118.387 65.8124L119.297 68.1408C122.297 66.9681 125.338 65.8587 128.415 64.8146L127.612 62.4471C130.699 61.4001 133.822 60.4181 136.981 59.503L137.677 61.9042C140.771 61.0077 143.899 60.1761 147.06 59.4113L146.472 56.9814C149.639 56.215 152.837 55.5149 156.065 54.883L156.545 57.3365C159.706 56.7176 162.896 56.1648 166.113 55.6798L165.741 53.2078C168.961 52.7222 172.208 52.3039 175.48 51.9547L175.745 54.4405C178.948 54.0986 182.174 53.8235 185.423 53.6169L185.264 51.1219C188.513 50.9153 191.784 50.7764 195.075 50.707L195.128 53.2064C196.747 53.1722 198.371 53.155 200 53.155C201.629 53.155 203.253 53.1722 204.872 53.2064L204.925 50.707C208.216 50.7764 211.486 50.9153 214.736 51.1219L214.577 53.6169C217.825 53.8235 221.052 54.0986 224.255 54.4405L224.52 51.9547C227.791 52.3039 231.039 52.7222 234.259 53.2078L233.887 55.6798C237.103 56.1648 240.294 56.7176 243.455 57.3364L243.935 54.883C247.163 55.5149 250.361 56.215 253.528 56.9814L252.94 59.4112C256.101 60.1761 259.229 61.0077 262.323 61.9042L263.019 59.5029C266.178 60.4181 269.301 61.4001 272.388 62.4471L271.584 64.8146C274.662 65.8587 277.703 66.9681 280.703 68.1408L281.613 65.8124C284.675 67.0092 287.697 68.2713 290.675 69.5967L289.659 71.8807C292.627 73.2015 295.551 74.5857 298.43 76.0313L299.551 73.7972C302.489 75.2723 305.379 76.8108 308.22 78.4103L306.994 80.5888C309.823 82.1816 312.602 83.8357 315.329 85.5488L316.659 83.4319C319.442 85.18 322.171 86.989 324.844 88.8566L323.412 90.906C326.072 92.7642 328.675 94.6809 331.219 96.654L332.751 94.6786C335.347 96.6919 337.882 98.7633 340.354 100.891L338.724 102.786C341.181 104.9 343.575 107.069 345.902 109.292L347.629 107.484C350.004 109.753 352.311 112.076 354.548 114.451L352.728 116.165C354.949 118.524 357.099 120.934 359.176 123.394L361.086 121.782C363.204 124.29 365.247 126.85 367.211 129.459L365.214 130.963C367.16 133.547 369.028 136.178 370.816 138.855L372.895 137.467C374.716 140.195 376.455 142.969 378.109 145.788L375.952 147.053C377.586 149.838 379.135 152.666 380.597 155.535L382.824 154.401C384.311 157.319 385.709 160.28 387.014 163.281L384.722 164.278C386.008 167.233 387.203 170.226 388.305 173.255L390.654 172.401C391.772 175.474 392.795 178.585 393.72 181.73L391.322 182.436C392.229 185.52 393.04 188.636 393.754 191.784L396.192 191.232C396.913 194.414 397.535 197.628 398.055 200.87L395.587 201.266C396.095 204.433 396.504 207.627 396.811 210.846L399.3 210.608Z" fill="url(#paint0_linear)" stroke="black" stroke-width="5" stroke-dasharray="10 10"/>
<g id="computer">
<rect id="Rectangle 11" x="0.395047" y="0.566334" width="38.8548" height="10.699" transform="matrix(0.988342 0.152472 -0.198247 0.980196 211.902 100.197)" fill="black" stroke="black"/>
<rect id="Rectangle 12" x="0.395047" y="0.566334" width="105.28" height="10.699" rx="4.5" transform="matrix(0.988342 0.152472 -0.198247 0.980196 176.757 106.6)" fill="black" stroke="black"/>
<rect id="Rectangle 10" x="1.58179" y="2.2671" width="155.419" height="89.592" rx="3" transform="matrix(0.988194 0.153206 -0.197298 0.980344 175.659 -0.197777)" fill="#DCDCDC" stroke="black" stroke-width="4"/>
<path id="Vector 2" d="M186.729 56.7665L192.374 22.162L236.747 23.6861M304.821 82.0797L294.661 98.8412L256.893 94.7884" stroke="black" stroke-width="2.5"/>
<path id="sc" d="M232.552 47.7422L214.964 36.7058L204.313 46.406L231.605 63.0036L212.44 77.403L198.631 64.3589M286.298 50.2852L271.443 39.3781L259.88 49.0352L258.753 67.2036L268.918 80.0754L285.035 70.6338" stroke="black" stroke-width="6"/>
</g>
<g id="mouse">
<path id="mouse_2" d="M126.027 169.145C130.06 172.287 133.799 175.003 137.182 177.46C138.396 178.341 139.564 179.19 140.684 180.012C144.93 183.134 148.467 185.882 151.184 188.7C153.897 191.514 155.764 194.371 156.705 197.697C157.645 201.018 157.679 204.87 156.628 209.717C155.308 215.809 153.024 222.306 149.987 226.697C148.47 228.89 146.785 230.53 144.962 231.353C143.152 232.171 141.175 232.197 139.034 231.106C129.326 226.16 121.326 221.965 115.311 215.837C109.323 209.736 105.287 201.699 103.574 189.012C102.709 182.602 106.01 175.854 110.773 171.576C115.538 167.297 121.562 165.666 126.027 169.145Z" fill="black" stroke="black"/>
<path id="red-light" d="M154.717 207.763C154.717 209.327 153.693 210.42 152.627 210.42C151.561 210.42 150.537 209.327 150.537 207.763C150.537 206.199 151.561 205.107 152.627 205.107C153.693 205.107 154.717 206.199 154.717 207.763Z" fill="#FF0000" stroke="black"/>
<path id="yellow-light" d="M147.465 222.915C147.465 224.479 146.441 225.571 145.375 225.571C144.309 225.571 143.285 224.479 143.285 222.915C143.285 221.35 144.309 220.258 145.375 220.258C146.441 220.258 147.465 221.35 147.465 222.915Z" fill="#FFFF00" stroke="black"/>
<path id="mouse-tail" d="M102.9 148.42L101.75 148.909L101.75 148.909L102.9 148.42ZM75.9651 116.223L75.7842 117.46L75.9651 116.223ZM57.8356 142.107L56.6276 141.786L56.6215 141.809L56.6162 141.832L57.8356 142.107ZM54.2097 197.662L52.9828 197.901L54.2097 197.662ZM71.8212 238.066L72.4631 223.647L59.6545 230.3L71.8212 238.066ZM109.634 185.667C110.883 185.61 110.883 185.609 110.883 185.609C110.883 185.609 110.883 185.608 110.883 185.608C110.883 185.607 110.883 185.606 110.883 185.604C110.882 185.601 110.882 185.596 110.882 185.59C110.881 185.578 110.88 185.56 110.879 185.536C110.877 185.489 110.873 185.419 110.869 185.328C110.859 185.146 110.844 184.878 110.823 184.534C110.781 183.844 110.716 182.847 110.619 181.61C110.426 179.136 110.11 175.698 109.616 171.844C108.634 164.171 106.935 154.712 104.051 147.931L101.75 148.909C104.49 155.352 106.158 164.517 107.137 172.161C107.624 175.965 107.936 179.361 108.127 181.804C108.222 183.026 108.287 184.008 108.328 184.685C108.348 185.023 108.363 185.284 108.372 185.46C108.377 185.549 108.38 185.615 108.382 185.66C108.383 185.682 108.384 185.699 108.385 185.71C108.385 185.715 108.385 185.719 108.385 185.722C108.385 185.723 108.385 185.724 108.385 185.724C108.385 185.725 108.385 185.725 108.385 185.725C108.385 185.725 108.385 185.725 109.634 185.667ZM104.051 147.931C100.661 139.962 97.1165 132.264 92.7539 126.314C88.3812 120.351 83.0803 116 76.146 114.986L75.7842 117.46C81.7995 118.34 86.5757 122.116 90.7379 127.793C94.9102 133.483 98.3583 140.935 101.75 148.909L104.051 147.931ZM76.146 114.986C72.8437 114.503 69.9752 116.269 67.6531 118.744C65.3166 121.234 63.3231 124.653 61.7119 128.033C60.0931 131.429 58.8238 134.864 57.9604 137.443C57.5281 138.734 57.1961 139.816 56.9717 140.576C56.8595 140.956 56.7741 141.256 56.7164 141.462C56.6876 141.565 56.6657 141.645 56.6509 141.7C56.6434 141.727 56.6378 141.748 56.6339 141.762C56.6319 141.769 56.6304 141.775 56.6294 141.779C56.6289 141.781 56.6284 141.782 56.6281 141.784C56.628 141.784 56.6279 141.785 56.6278 141.785C56.6277 141.785 56.6276 141.786 57.8356 142.107C59.0436 142.428 59.0436 142.428 59.0436 142.428C59.0436 142.428 59.0437 142.428 59.0437 142.428C59.0439 142.427 59.0441 142.426 59.0445 142.425C59.0452 142.422 59.0464 142.418 59.048 142.412C59.0512 142.4 59.0562 142.381 59.0629 142.357C59.0764 142.307 59.0968 142.233 59.1241 142.135C59.1787 141.94 59.2608 141.651 59.3694 141.284C59.5866 140.548 59.9097 139.496 60.3311 138.237C61.1754 135.715 62.4083 132.382 63.9686 129.109C65.5363 125.82 67.3984 122.669 69.4763 120.455C71.5685 118.225 73.673 117.151 75.7842 117.46L76.146 114.986ZM57.8356 142.107C56.6162 141.832 56.6162 141.832 56.6161 141.833C56.616 141.833 56.6159 141.833 56.6157 141.834C56.6155 141.835 56.6151 141.837 56.6145 141.839C56.6135 141.844 56.612 141.851 56.6101 141.859C56.6062 141.877 56.6005 141.902 56.593 141.936C56.5781 142.003 56.5562 142.103 56.528 142.233C56.4715 142.493 56.3895 142.877 56.2867 143.371C56.0812 144.36 55.7929 145.794 55.46 147.581C54.7944 151.152 53.9502 156.136 53.2353 161.787C51.8106 173.048 50.8793 187.106 52.9828 197.901L55.4366 197.423C53.4142 187.043 54.2958 173.323 55.7155 162.101C56.4229 156.509 57.2587 151.575 57.9177 148.039C58.2471 146.271 58.5321 144.854 58.7344 143.88C58.8356 143.393 58.9161 143.017 58.9711 142.763C58.9986 142.636 59.0198 142.54 59.034 142.476C59.041 142.444 59.0464 142.42 59.0499 142.404C59.0517 142.397 59.053 142.391 59.0538 142.387C59.0543 142.385 59.0546 142.384 59.0548 142.383C59.0549 142.382 59.0549 142.382 59.055 142.382C59.055 142.382 59.055 142.382 57.8356 142.107ZM52.9828 197.901C55.4921 210.779 60.6905 219.892 65.5405 228.686L67.7296 227.479C62.8645 218.658 57.8609 209.865 55.4366 197.423L52.9828 197.901Z" fill="black"/>
<path id="green-light" d="M151.609 215.339C151.609 216.903 150.585 217.995 149.519 217.995C148.453 217.995 147.429 216.903 147.429 215.339C147.429 213.775 148.453 212.682 149.519 212.682C150.585 212.682 151.609 213.775 151.609 215.339Z" stroke="black"/>
</g>
<g id="banner">
<path id="banner_2" d="M368.241 243.946C367.646 244.812 366.888 245.929 366.007 247.258C363.775 250.626 360.753 255.358 357.589 260.816C351.281 271.7 344.347 285.582 342.085 297.3C340.114 307.513 340.8 320.706 341.958 331.275C342.538 336.574 343.24 341.24 343.797 344.583C344.034 346.005 344.245 347.189 344.409 348.079C344.351 348.056 344.291 348.032 344.23 348.007C342.964 347.498 341.123 346.763 338.82 345.86C334.214 344.055 327.758 341.577 320.357 338.889C305.565 333.518 286.959 327.29 271.799 323.913C257.185 320.658 237.699 320.197 221.925 320.539C214.027 320.711 207.036 321.084 202.02 321.415C199.522 321.58 197.513 321.734 196.124 321.847C196.68 321.107 197.39 320.15 198.219 319.009C200.304 316.137 203.141 312.1 206.148 307.436C212.146 298.136 218.887 286.243 221.634 276.113C224.782 264.502 224.285 249.304 223.031 237.098C222.402 230.977 221.579 225.574 220.913 221.701C220.664 220.256 220.438 219.024 220.251 218.046C221.38 218.838 222.929 219.907 224.826 221.176C229.036 223.992 234.967 227.796 241.855 231.747C255.6 239.633 273.269 248.175 288.694 250.55C304.82 253.033 325.35 251.224 341.779 248.818C350.008 247.612 357.235 246.253 362.406 245.195C364.844 244.696 366.826 244.264 368.241 243.946Z" fill="url(#paint1_radial)" stroke="black" stroke-width="2"/>
<path id="coding" d="M248.712 286.644L245.765 283.445L241.124 285.309L239.243 293.463L240.882 297.771L246.336 296.944M251.263 291.558L255.2 290.465L258.444 292.375L258.356 295.039L254.441 300.603L249.877 297.567L251.56 290.271M273.279 287.392C272.367 293.633 270.459 306.011 270.134 305.597C269.808 305.182 265.071 303.962 262.744 303.404L261.193 296.432L267.462 296.641L270.2 298.463M278.733 307.11C279.129 305.393 279.229 298.116 279.691 296.113M284.859 298.808L284.298 308.088L285.981 300.792L294.262 299.123L298.319 302.069L293.909 309.779M296.241 311.083L309.085 312.449L313.407 307.403L314.844 302.743M314.844 302.743L315.497 300.625L317.092 295.993L310.307 293.459L303.334 294.019L301.553 301.745L307.733 304.619L314.844 302.743Z" stroke="black" stroke-width="2.5"/>
<path id="silent" d="M256.366 260.3L250.373 254.333L246.062 261.614L251.748 266.634L247.129 272.967L241.036 267.429M260.281 275.28C260.923 274.322 262.198 267.728 262.756 264.551M272.334 259.536L268.375 276.704M276.535 270.994C276.94 271.065 281.762 271.914 284.123 272.329L279.438 265.252L274.533 275.108L280.725 280.217L284.771 280.929M292.096 269.712L289.324 281.729L292.712 271.607L300.19 271.136L302.84 275.621L299.738 282.222M308.393 274.365L320.028 276.412M314.827 267.011L310.571 285.467L316.135 286.446" stroke="black" stroke-width="2.5"/>
</g>
</g>
<defs>
<linearGradient id="paint0_linear" x1="280" y1="124.017" x2="160.965" y2="404.841" gradientUnits="userSpaceOnUse">
<stop stop-color="#1B1B1B"/>
<stop offset="1" stop-color="#605D5D" stop-opacity="0.27"/>
</linearGradient>
<radialGradient id="paint1_radial" cx="0" cy="0" r="1" gradientUnits="userSpaceOnUse" gradientTransform="translate(282.253 282.719) rotate(102.987) scale(55.058 76.9385)">
<stop stop-color="#F4D638"/>
<stop offset="1" stop-color="#F7F0D0"/>
</radialGradient>
</defs>
</svg>
 